<svg width="205" height="28" viewBox="0 0 205 28" fill="none" xmlns="http://www.w3.org/2000/svg">
<path d="M20.5352 14.3965C20.5352 15.5566 20.3828 16.6758 20.0781 17.7539C19.7852 18.8203 19.3633 19.8223 18.8125 20.7598C18.2617 21.6855 17.6055 22.5352 16.8438 23.3086C16.082 24.0703 15.2324 24.7266 14.2949 25.2773C13.3574 25.8281 12.3496 26.2559 11.2715 26.5605C10.2051 26.8535 9.0918 27 7.93164 27H0.337891V1.79297H7.93164C9.0918 1.79297 10.2051 1.94531 11.2715 2.25C12.3496 2.54297 13.3574 2.96484 14.2949 3.51562C15.2324 4.06641 16.082 4.72852 16.8438 5.50195C17.6055 6.26367 18.2617 7.11328 18.8125 8.05078C19.3633 8.97656 19.7852 9.97852 20.0781 11.0566C20.3828 12.123 20.5352 13.2363 20.5352 14.3965ZM15.4902 14.3965C15.4902 13.3535 15.291 12.375 14.8926 11.4609C14.5059 10.5469 13.9668 9.75 13.2754 9.07031C12.5957 8.37891 11.793 7.83398 10.8672 7.43555C9.95312 7.03711 8.97461 6.83789 7.93164 6.83789H5.41797V21.9551H7.93164C8.97461 21.9551 9.95312 21.7617 10.8672 21.375C11.793 20.9766 12.5957 20.4375 13.2754 19.7578C13.9668 19.0664 14.5059 18.2637 14.8926 17.3496C15.291 16.4238 15.4902 15.4395 15.4902 14.3965ZM28.1816 27H23.3828V8.17383H24.543L26.125 10.4062C26.8984 9.70312 27.7773 9.16406 28.7617 8.78906C29.7461 8.40234 30.7656 8.20898 31.8203 8.20898H36.0566V12.9902H31.8203C31.3164 12.9902 30.8418 13.084 30.3965 13.2715C29.9512 13.459 29.5645 13.7168 29.2363 14.0449C28.9082 14.373 28.6504 14.7598 28.4629 15.2051C28.2754 15.6504 28.1816 16.125 28.1816 16.6289V27ZM45.4258 22.3945C45.6133 22.4531 45.8008 22.4941 45.9883 22.5176C46.1758 22.5293 46.3633 22.5352 46.5508 22.5352C47.0195 22.5352 47.4707 22.4707 47.9043 22.3418C48.3379 22.2129 48.7422 22.0312 49.1172 21.7969C49.5039 21.5508 49.8438 21.2578 50.1367 20.918C50.4414 20.5664 50.6875 20.1797 50.875 19.7578L54.3906 23.291C53.9453 23.9238 53.4297 24.4922 52.8438 24.9961C52.2695 25.5 51.6426 25.9277 50.9629 26.2793C50.2949 26.6309 49.5859 26.8945 48.8359 27.0703C48.0977 27.2578 47.3359 27.3516 46.5508 27.3516C45.2266 27.3516 43.9785 27.1055 42.8066 26.6133C41.6465 26.1211 40.627 25.4355 39.748 24.5566C38.8809 23.6777 38.1953 22.6348 37.6914 21.4277C37.1875 20.209 36.9355 18.873 36.9355 17.4199C36.9355 15.9316 37.1875 14.5723 37.6914 13.3418C38.1953 12.1113 38.8809 11.0625 39.748 10.1953C40.627 9.32812 41.6465 8.6543 42.8066 8.17383C43.9785 7.69336 45.2266 7.45312 46.5508 7.45312C47.3359 7.45312 48.1035 7.54688 48.8535 7.73438C49.6035 7.92188 50.3125 8.19141 50.9805 8.54297C51.6602 8.89453 52.293 9.32812 52.8789 9.84375C53.4648 10.3477 53.9805 10.916 54.4258 11.5488L45.4258 22.3945ZM47.8867 12.498C47.6641 12.416 47.4414 12.3633 47.2188 12.3398C47.0078 12.3164 46.7852 12.3047 46.5508 12.3047C45.8945 12.3047 45.2734 12.4277 44.6875 12.6738C44.1133 12.9082 43.6094 13.248 43.1758 13.6934C42.7539 14.1387 42.4199 14.6777 42.1738 15.3105C41.9277 15.9316 41.8047 16.6348 41.8047 17.4199C41.8047 17.5957 41.8105 17.7949 41.8223 18.0176C41.8457 18.2402 41.875 18.4688 41.9102 18.7031C41.957 18.9258 42.0098 19.1426 42.0684 19.3535C42.127 19.5645 42.2031 19.752 42.2969 19.916L47.8867 12.498ZM74.9395 27H73.7793L71.916 24.416C71.459 24.8262 70.9727 25.2129 70.457 25.5762C69.9531 25.9277 69.4199 26.2383 68.8574 26.5078C68.2949 26.7656 67.7148 26.9707 67.1172 27.123C66.5312 27.2754 65.9336 27.3516 65.3242 27.3516C64 27.3516 62.752 27.1289 61.5801 26.6836C60.4199 26.2383 59.4004 25.5938 58.5215 24.75C57.6543 23.8945 56.9688 22.8516 56.4648 21.6211C55.9609 20.3906 55.709 18.9902 55.709 17.4199C55.709 15.9551 55.9609 14.6133 56.4648 13.3945C56.9688 12.1641 57.6543 11.1094 58.5215 10.2305C59.4004 9.35156 60.4199 8.67188 61.5801 8.19141C62.752 7.69922 64 7.45312 65.3242 7.45312C65.9336 7.45312 66.5371 7.5293 67.1348 7.68164C67.7324 7.83398 68.3125 8.04492 68.875 8.31445C69.4375 8.58398 69.9707 8.90039 70.4746 9.26367C70.9902 9.62695 71.4707 10.0195 71.916 10.4414L73.7793 8.20898H74.9395V27ZM70.1055 17.4199C70.1055 16.7637 69.9766 16.1309 69.7188 15.5215C69.4727 14.9004 69.1328 14.3555 68.6992 13.8867C68.2656 13.4062 67.7559 13.0254 67.1699 12.7441C66.5957 12.4512 65.9805 12.3047 65.3242 12.3047C64.668 12.3047 64.0469 12.416 63.4609 12.6387C62.8867 12.8613 62.3828 13.1895 61.9492 13.623C61.5273 14.0566 61.1934 14.5957 60.9473 15.2402C60.7012 15.873 60.5781 16.5996 60.5781 17.4199C60.5781 18.2402 60.7012 18.9727 60.9473 19.6172C61.1934 20.25 61.5273 20.7832 61.9492 21.2168C62.3828 21.6504 62.8867 21.9785 63.4609 22.2012C64.0469 22.4238 64.668 22.5352 65.3242 22.5352C65.9805 22.5352 66.5957 22.3945 67.1699 22.1133C67.7559 21.8203 68.2656 21.4395 68.6992 20.9707C69.1328 20.4902 69.4727 19.9453 69.7188 19.3359C69.9766 18.7148 70.1055 18.0762 70.1055 17.4199ZM102.555 27H97.7734V15.0469C97.7734 14.7188 97.709 14.4082 97.5801 14.1152C97.4629 13.8223 97.293 13.5645 97.0703 13.3418C96.8477 13.1191 96.5898 12.9492 96.2969 12.832C96.0039 12.7031 95.6934 12.6387 95.3652 12.6387C95.0371 12.6387 94.7266 12.7031 94.4336 12.832C94.1523 12.9492 93.9004 13.1191 93.6777 13.3418C93.4668 13.5645 93.2969 13.8223 93.168 14.1152C93.0508 14.4082 92.9922 14.7188 92.9922 15.0469V27H88.1934V15.0469C88.1934 14.7188 88.1289 14.4082 88 14.1152C87.8828 13.8223 87.7129 13.5645 87.4902 13.3418C87.2676 13.1191 87.0098 12.9492 86.7168 12.832C86.4238 12.7031 86.1133 12.6387 85.7852 12.6387C85.457 12.6387 85.1465 12.7031 84.8535 12.832C84.5723 12.9492 84.3203 13.1191 84.0977 13.3418C83.8867 13.5645 83.7168 13.8223 83.5879 14.1152C83.4707 14.4082 83.4121 14.7188 83.4121 15.0469V27H78.6133V8.17383H79.7734L81.0742 9.61523C81.7422 9.05273 82.4746 8.61914 83.2715 8.31445C84.0801 7.99805 84.918 7.83984 85.7852 7.83984C86.6641 7.83984 87.5195 8.00391 88.3516 8.33203C89.1953 8.66016 89.9336 9.22852 90.5664 10.0371C90.8594 9.63867 91.1934 9.29883 91.5684 9.01758C91.9434 8.73633 92.3359 8.50781 92.7461 8.33203C93.168 8.15625 93.6016 8.0332 94.0469 7.96289C94.4922 7.88086 94.9316 7.83984 95.3652 7.83984C96.3613 7.83984 97.293 8.02734 98.1602 8.40234C99.0391 8.77734 99.8008 9.29297 100.445 9.94922C101.102 10.5938 101.617 11.3555 101.992 12.2344C102.367 13.1133 102.555 14.0508 102.555 15.0469V27ZM116.406 27H105.438V22.2188H116.406C116.734 22.2188 117.016 22.1016 117.25 21.8672C117.484 21.6328 117.602 21.3516 117.602 21.0234C117.602 20.6836 117.484 20.4609 117.25 20.3555C117.016 20.25 116.734 20.1973 116.406 20.1973H111.414C110.582 20.1973 109.803 20.0391 109.076 19.7227C108.35 19.4062 107.717 18.9785 107.178 18.4395C106.639 17.8887 106.211 17.25 105.895 16.5234C105.59 15.7969 105.438 15.0176 105.438 14.1855C105.438 13.3535 105.59 12.5742 105.895 11.8477C106.211 11.1211 106.639 10.4883 107.178 9.94922C107.717 9.41016 108.35 8.98828 109.076 8.68359C109.803 8.36719 110.582 8.20898 111.414 8.20898H121.135V12.9902H111.414C111.086 12.9902 110.805 13.1074 110.57 13.3418C110.336 13.5762 110.219 13.8574 110.219 14.1855C110.219 14.5254 110.336 14.8184 110.57 15.0645C110.805 15.2988 111.086 15.416 111.414 15.416H116.406C117.227 15.416 118 15.5566 118.727 15.8379C119.453 16.1074 120.086 16.4883 120.625 16.9805C121.164 17.4727 121.592 18.0645 121.908 18.7559C122.225 19.4473 122.383 20.2031 122.383 21.0234C122.383 21.8555 122.225 22.6348 121.908 23.3613C121.592 24.0762 121.164 24.709 120.625 25.2598C120.086 25.7988 119.453 26.2266 118.727 26.543C118 26.8477 117.227 27 116.406 27Z" fill="white"/>
<path d="M155.711 19.4414C155.711 20.4844 155.512 21.4629 155.113 22.377C154.715 23.291 154.17 24.0938 153.479 24.7852C152.799 25.4648 152.002 26.0039 151.088 26.4023C150.174 26.8008 149.195 27 148.152 27H135.549V1.79297H148.152C149.195 1.79297 150.174 1.99219 151.088 2.39062C152.002 2.78906 152.799 3.33398 153.479 4.02539C154.17 4.70508 154.715 5.50195 155.113 6.41602C155.512 7.33008 155.711 8.30859 155.711 9.35156C155.711 9.82031 155.646 10.3008 155.518 10.793C155.389 11.2852 155.207 11.7598 154.973 12.2168C154.738 12.6738 154.457 13.0898 154.129 13.4648C153.801 13.8398 153.438 14.1504 153.039 14.3965C153.449 14.6191 153.818 14.9238 154.146 15.3105C154.475 15.6855 154.756 16.1016 154.99 16.5586C155.225 17.0156 155.4 17.4961 155.518 18C155.646 18.4922 155.711 18.9727 155.711 19.4414ZM140.594 21.9551H148.152C148.504 21.9551 148.832 21.8906 149.137 21.7617C149.441 21.6328 149.705 21.457 149.928 21.2344C150.162 21 150.344 20.7305 150.473 20.4258C150.602 20.1211 150.666 19.793 150.666 19.4414C150.666 19.0898 150.602 18.7617 150.473 18.457C150.344 18.1523 150.162 17.8887 149.928 17.666C149.705 17.4316 149.441 17.25 149.137 17.1211C148.832 16.9922 148.504 16.9277 148.152 16.9277H140.594V21.9551ZM140.594 11.8828H148.152C148.504 11.8828 148.832 11.8184 149.137 11.6895C149.441 11.5605 149.705 11.3848 149.928 11.1621C150.162 10.9277 150.344 10.6582 150.473 10.3535C150.602 10.0371 150.666 9.70312 150.666 9.35156C150.666 9 150.602 8.67188 150.473 8.36719C150.344 8.0625 150.162 7.79883 149.928 7.57617C149.705 7.3418 149.441 7.16016 149.137 7.03125C148.832 6.90234 148.504 6.83789 148.152 6.83789H140.594V11.8828ZM163.85 27H159.016V0.685547H163.85V27ZM181.357 24.8027C180.971 25.1543 180.555 25.4883 180.109 25.8047C179.676 26.1094 179.219 26.3789 178.738 26.6133C178.258 26.8359 177.76 27.0117 177.244 27.1406C176.74 27.2812 176.225 27.3516 175.697 27.3516C174.537 27.3516 173.447 27.1465 172.428 26.7363C171.408 26.3262 170.512 25.7461 169.738 24.9961C168.977 24.2344 168.373 23.3145 167.928 22.2363C167.494 21.1465 167.277 19.9277 167.277 18.5801V8.17383H172.059V18.5801C172.059 19.2129 172.152 19.7812 172.34 20.2852C172.539 20.7773 172.803 21.1934 173.131 21.5332C173.459 21.873 173.84 22.1309 174.273 22.3066C174.719 22.4824 175.193 22.5703 175.697 22.5703C176.189 22.5703 176.652 22.459 177.086 22.2363C177.531 22.002 177.918 21.6973 178.246 21.3223C178.574 20.9473 178.832 20.5254 179.02 20.0566C179.207 19.5762 179.301 19.084 179.301 18.5801V8.17383H184.1V27H182.939L181.357 24.8027ZM195.262 22.3945C195.449 22.4531 195.637 22.4941 195.824 22.5176C196.012 22.5293 196.199 22.5352 196.387 22.5352C196.855 22.5352 197.307 22.4707 197.74 22.3418C198.174 22.2129 198.578 22.0312 198.953 21.7969C199.34 21.5508 199.68 21.2578 199.973 20.918C200.277 20.5664 200.523 20.1797 200.711 19.7578L204.227 23.291C203.781 23.9238 203.266 24.4922 202.68 24.9961C202.105 25.5 201.479 25.9277 200.799 26.2793C200.131 26.6309 199.422 26.8945 198.672 27.0703C197.934 27.2578 197.172 27.3516 196.387 27.3516C195.062 27.3516 193.814 27.1055 192.643 26.6133C191.482 26.1211 190.463 25.4355 189.584 24.5566C188.717 23.6777 188.031 22.6348 187.527 21.4277C187.023 20.209 186.771 18.873 186.771 17.4199C186.771 15.9316 187.023 14.5723 187.527 13.3418C188.031 12.1113 188.717 11.0625 189.584 10.1953C190.463 9.32812 191.482 8.6543 192.643 8.17383C193.814 7.69336 195.062 7.45312 196.387 7.45312C197.172 7.45312 197.939 7.54688 198.689 7.73438C199.439 7.92188 200.148 8.19141 200.816 8.54297C201.496 8.89453 202.129 9.32812 202.715 9.84375C203.301 10.3477 203.816 10.916 204.262 11.5488L195.262 22.3945ZM197.723 12.498C197.5 12.416 197.277 12.3633 197.055 12.3398C196.844 12.3164 196.621 12.3047 196.387 12.3047C195.73 12.3047 195.109 12.4277 194.523 12.6738C193.949 12.9082 193.445 13.248 193.012 13.6934C192.59 14.1387 192.256 14.6777 192.01 15.3105C191.764 15.9316 191.641 16.6348 191.641 17.4199C191.641 17.5957 191.646 17.7949 191.658 18.0176C191.682 18.2402 191.711 18.4688 191.746 18.7031C191.793 18.9258 191.846 19.1426 191.904 19.3535C191.963 19.5645 192.039 19.752 192.133 19.916L197.723 12.498Z" fill="#00C8F4"/>
</svg>
